PathFileType	4	(X/Y/Z)	C:\Users\Graham\Documents\MATLAB\MOtoNMS_v2_2\MyData\ElaboratedData\S8\22-05-17\staticElaborations\Static1\Static1\\Static1.trc
DataRate	CameraRate	NumFrames	NumMarkers	Units	OrigDataRate	DataStartFrame
100	100	4	38	mm	100	2
Frame#	Time	V_Sacral			R_ASIS			L_ASIS			R_Knee_Lat			R_Knee_Med			R_Thigh_Upper			R_Thigh_Front			R_Thigh_Rear			L_Knee_Lat			L_Knee_Med			L_Thigh_Upper			L_Thigh_Front			L_Thigh_Rear			R_Ankle_Lat			R_Ankle_Med			R_Shank_Upper			R_Shank_Front			R_Shank_Rear			L_Ankle_Lat			L_Ankle_Med			L_Shank_Upper			L_Shank_Front			L_Shank_Rear			R_Heel			R_MTP1			R_MTP5			L_Heel			L_MTP1			L_MTP5			Clavicle			R_Acromium			L_Acromium			LAJC			RAJC			LHJC			RHJC			LKJC			RKJC		
		X1	Y1	Z1	X2	Y2	Z2	X3	Y3	Z3	X4	Y4	Z4	X5	Y5	Z5	X6	Y6	Z6	X7	Y7	Z7	X8	Y8	Z8	X9	Y9	Z9	X10	Y10	Z10	X11	Y11	Z11	X12	Y12	Z12	X13	Y13	Z13	X14	Y14	Z14	X15	Y15	Z15	X16	Y16	Z16	X17	Y17	Z17	X18	Y18	Z18	X19	Y19	Z19	X20	Y20	Z20	X21	Y21	Z21	X22	Y22	Z22	X23	Y23	Z23	X24	Y24	Z24	X25	Y25	Z25	X26	Y26	Z26	X27	Y27	Z27	X28	Y28	Z28	X29	Y29	Z29	X30	Y30	Z30	X31	Y31	Z31	X32	Y32	Z32	X33	Y33	Z33	X34	Y34	Z34	X35	Y35	Z35	X36	Y36	Z36	X37	Y37	Z37	X38	Y38	Z38	

111	1.100000	-245.824651	1018.050327	-12.395671	-46.226860	992.987791	134.241063	-22.255895	993.248304	-96.183988	-129.888149	526.298164	176.510086	-144.770646	528.566031	40.102588	-13.552622	818.193877	137.073288	-28.245372	704.130437	88.495271	-47.370140	703.230430	159.335406	-109.171531	537.045107	-144.385590	-146.369352	530.829232	-10.068989	4.754349	811.055631	-63.843262	-19.975461	688.831692	-38.334819	-15.147934	695.975767	-113.734427	-183.017467	92.387244	141.864970	-171.270090	100.609770	66.067786	-111.318075	333.023931	129.340414	-145.622950	225.451785	84.160339	-140.447127	219.065756	156.909679	-177.716836	88.395303	-113.656391	-164.530071	99.813826	-36.383110	-109.339310	327.458020	-97.511342	-140.963211	220.800040	-53.969241	-127.631461	210.674762	-127.154358	-241.157299	51.522377	95.657023	-28.193317	63.831438	82.281595	-47.248830	51.588174	158.262998	-238.622717	57.802535	-74.814824	-26.700488	66.233278	-59.951603	-42.824734	52.330035	-135.039646	-71.906872	1390.126774	20.620535	-160.241651	1438.263743	173.677732	-142.029691	1448.526254	-161.789892	-171.123454	94.104564	-75.019751	-177.143779	96.498507	103.966378	-95.672066	920.486576	-71.646851	-113.003578	920.298219	94.955308	-127.770441	533.937170	-77.227290	-137.329398	527.432098	108.306337	
112	1.110000	-245.822586	1018.051785	-12.409888	-46.214157	992.985227	134.218061	-22.252780	993.247898	-96.204313	-129.884081	526.299870	176.497202	-144.770111	528.565345	40.089855	-13.548965	818.191674	137.054109	-28.241522	704.128930	88.476894	-47.363463	703.230855	159.320033	-109.175846	537.045023	-144.399022	-146.366966	530.831659	-10.082685	4.749145	811.048572	-63.862215	-19.976128	688.840814	-38.351478	-15.151758	695.973832	-113.751313	-183.018984	92.388967	141.863832	-171.271435	100.610562	66.066340	-111.316641	333.023944	129.335309	-145.623151	225.451800	84.155703	-140.445542	219.068341	156.907362	-177.717320	88.395531	-113.658022	-164.531542	99.816320	-36.384978	-109.342883	327.458377	-97.519908	-140.966088	220.801707	-53.976756	-127.631999	210.674918	-127.161328	-241.158404	51.524349	95.656085	-28.194636	63.830770	82.281696	-47.247982	51.590031	158.262275	-238.624608	57.804943	-74.814888	-26.701933	66.233834	-59.951137	-42.824975	52.330313	-135.040563	-71.900557	1390.130022	20.597721	-160.229928	1438.256757	173.664564	-142.039307	1448.531259	-161.807798	-171.124431	94.105925	-75.021500	-177.145210	96.499764	103.965086	-95.669666	920.487851	-71.665722	-112.994270	920.297934	94.934730	-127.771406	533.938341	-77.240854	-137.327096	527.432607	108.293528	
113	1.120000	-245.821076	1018.054554	-12.423446	-46.202296	992.983061	134.194865	-22.250762	993.248085	-96.225086	-129.878382	526.302998	176.483516	-144.767713	528.565242	40.076004	-13.544665	818.190194	137.033544	-28.236402	704.128525	88.457746	-47.344320	703.238616	159.309067	-109.181044	537.044454	-144.411649	-146.363656	530.834857	-10.095465	4.741249	811.041504	-63.884383	-19.976765	688.856822	-38.368372	-15.156444	695.972427	-113.769059	-183.020039	92.390976	141.862574	-171.271610	100.611402	66.064332	-111.313756	333.024133	129.328856	-145.621771	225.452070	84.150628	-140.442721	219.071178	156.905249	-177.717652	88.395821	-113.659381	-164.532175	99.819016	-36.386711	-109.346308	327.458710	-97.527753	-140.967381	220.804266	-53.983395	-127.633137	210.675773	-127.168702	-241.159335	51.526725	95.655332	-28.195518	63.829980	82.281840	-47.247237	51.592215	158.262375	-238.626423	57.807622	-74.815060	-26.702980	66.234601	-59.951287	-42.825453	52.330646	-135.041539	-71.892463	1390.134511	20.574641	-160.216803	1438.250111	173.651986	-142.047662	1448.538521	-161.825380	-171.124914	94.107418	-75.023046	-177.145824	96.501189	103.963453	-95.668521	920.489895	-71.684994	-112.986030	920.298276	94.913920	-127.772350	533.939655	-77.253557	-137.323048	527.434120	108.279760	
114	1.130000	-245.820080	1018.058617	-12.436535	-46.191370	992.981368	134.171545	-22.249663	993.248871	-96.246295	-129.871101	526.307330	176.469157	-144.763279	528.565669	40.061095	-13.539279	818.189870	137.011646	-28.230216	704.129307	88.437615	-47.318217	703.250498	159.299715	-109.186974	537.043307	-144.423479	-146.359693	530.838816	-10.107341	4.732320	811.035087	-63.909407	-19.977533	688.879784	-38.385475	-15.161706	695.971533	-113.787828	-183.020490	92.393256	141.861217	-171.270521	100.612249	66.061717	-111.309283	333.024457	129.320938	-145.618698	225.452499	84.145135	-140.438510	219.074129	156.903146	-177.717904	88.396153	-113.660418	-164.532071	99.821715	-36.388350	-109.349447	327.458966	-97.534883	-140.967149	220.807639	-53.989072	-127.634715	210.677371	-127.176879	-241.159902	51.529324	95.654812	-28.195864	63.829126	82.281932	-47.246610	51.594655	158.263101	-238.628169	57.810471	-74.815388	-26.703597	66.235597	-59.952204	-42.826068	52.330915	-135.042421	-71.882730	1390.140365	20.551758	-160.202773	1438.244230	173.640036	-142.054651	1448.547283	-161.842594	-171.124988	94.108934	-75.024384	-177.145505	96.502752	103.961467	-95.668476	920.492678	-71.704703	-112.978900	920.299267	94.892880	-127.773333	533.941061	-77.265410	-137.317190	527.436499	108.265126	
